<svg preserveAspectRatio="none" width="100%" height="100%" overflow="visible" style="display: block;" viewBox="0 0 13 13" fill="none" xmlns="http://www.w3.org/2000/svg">
<g id="boxicons:location">
<path id="Vector" d="M8.66667 5.41667C8.66667 4.21958 7.69708 3.25 6.5 3.25C5.30292 3.25 4.33333 4.21958 4.33333 5.41667C4.33333 6.61375 5.30292 7.58333 6.5 7.58333C7.69708 7.58333 8.66667 6.61375 8.66667 5.41667ZM5.41667 5.41667C5.41667 4.82083 5.90417 4.33333 6.5 4.33333C7.09583 4.33333 7.58333 4.82083 7.58333 5.41667C7.58333 6.0125 7.09583 6.5 6.5 6.5C5.90417 6.5 5.41667 6.0125 5.41667 5.41667Z" fill="var(--fill-0, #F65A89)"/>
<path id="Vector_2" d="M6.18583 11.8137C6.27792 11.8787 6.39167 11.9167 6.5 11.9167C6.60833 11.9167 6.72208 11.8842 6.81417 11.8137C6.97667 11.6946 10.8496 8.905 10.8333 5.41125C10.8333 3.0225 8.88875 1.07792 6.5 1.07792C4.11125 1.07792 2.16667 3.0225 2.16667 5.41125C2.15042 8.89958 6.02333 11.6946 6.18583 11.8137ZM6.5 2.16667C8.29292 2.16667 9.75 3.62375 9.75 5.41667C9.76083 7.82167 7.37208 9.98292 6.5 10.6925C5.62792 9.98292 3.23917 7.82708 3.25 5.41667C3.25 3.62375 4.70708 2.16667 6.5 2.16667Z" fill="var(--fill-0, #F65A89)"/>
</g>
</svg>
