<svg preserveAspectRatio="none" width="100%" height="100%" overflow="visible" style="display: block;" viewBox="0 0 24 24" fill="none" xmlns="http://www.w3.org/2000/svg">
<g id="pixel:face-grin">
<path id="Vector" d="M16 14V15H8V14H6V17H7V18H8V19H16V18H17V17H18V14H16ZM15 17V18H10V17H11V16H16V17H15Z" fill="var(--fill-0, #42477E)"/>
<path id="Vector_2" d="M22 9V7H21V5H20V4H19V3H17V2H15V1H9V2H7V3H5V4H4V5H3V7H2V9H1V15H2V17H3V19H4V20H5V21H7V22H9V23H15V22H17V21H19V20H20V19H21V17H22V15H23V9H22ZM21 15H20V17H19V18H18V19H17V20H15V21H9V20H7V19H6V18H5V17H4V15H3V9H4V7H5V6H6V5H7V4H9V3H15V4H17V5H18V6H19V7H20V9H21V15Z" fill="var(--fill-0, #42477E)"/>
<path id="Vector_3" d="M7 8H10V11H7V8ZM14 8H17V11H14V8Z" fill="var(--fill-0, #42477E)"/>
</g>
</svg>
